<?xml version="1.0" encoding="utf-8"?>
<!-- Svg Vector Icons : http://www.onlinewebfonts.com/icon -->
<!DOCTYPE svg PUBLIC "-//W3C//DTD SVG 1.1//EN" "http://www.w3.org/Graphics/SVG/1.1/DTD/svg11.dtd">
<svg version="1.1" xmlns="http://www.w3.org/2000/svg" xmlns:xlink="http://www.w3.org/1999/xlink" x="0px" y="0px" viewBox="0 0 1000 1000" enable-background="new 0 0 1000 1000" xml:space="preserve">
<metadata> Svg Vector Icons : http://www.onlinewebfonts.com/icon </metadata>
<g><line fill="none" stroke="#040000" stroke-width="2" stroke-linejoin="round" stroke-miterlimit="10" x1="50.8" y1="552.7" x2="50.8" y2="348.5"/><path d="M663.3,552.7v69.4c0,53.1-40.8,93.9-93.9,93.9H357.1C299.9,716,255,671.1,255,613.9l0,0c0-57.2,44.9-102.1,102.1-102.1c0,0,265.4,0,387.9,0s220.5,183.8,220.5,183.8c8.2,8.2,24.5,0,24.5-12.3V217.9c0-12.3-16.3-20.4-24.5-12.3c0,0-98,183.8-220.5,183.8s-371.6,0-371.6,0c-110.2,0-200.1,89.8-200.1,200.1v4.1c0,114.3,89.8,204.2,200.1,204.2h191.9c98,0,175.6-77.6,175.6-175.6v-69.4H663.3z"/><path d="M226.4,389.4H10v122.5h122.5C148.8,462.9,185.6,417.9,226.4,389.4z"/></g>
</svg>